<svg xmlns="http://www.w3.org/2000/svg" viewBox="0 0 143 143" width="24" height="24" fill="currentColor">
  <circle cx="71.5" cy="71.5" r="71.5" fill="currentColor"/>
  <g fill="none" stroke="white" stroke-width="2" stroke-linecap="round" stroke-linejoin="round">
    <path d="M86 43c11 4 30 4 42 3a62 62 0 0 0-90-27C59 9 69 36 86 43Z"/>
    <path d="M108 68c9 0 18-2 25-5l-5-17c-12 1-31 1-42-3-17-7-28-35-48-25a62 62 0 0 0-27 70c10-9 31-25 49-30 25-7 27 9 48 10Z"/>
    <path d="M133 63c-7 3-16 5-25 5-21-1-23-17-48-10-18 5-39 22-49 30 2 7 5 14 10 20 6-5 14-11 23-13 26-5 26 13 48 11 12-2 28-13 40-23a64 64 0 0 0 1-20Z"/>
    <path d="M44 95c-9 2-17 7-23 13a62 62 0 0 0 111-25c-12 10-28 21-40 23-22 2-22-16-48-11Z"/>
    <circle cx="90" cy="90" r="10"/>
  </g>
</svg>
