<?xml version="1.0" standalone="no"?>
<!DOCTYPE svg PUBLIC "-//W3C//DTD SVG 20010904//EN"
 "http://www.w3.org/TR/2001/REC-SVG-20010904/DTD/svg10.dtd">
<svg version="1.0" xmlns="http://www.w3.org/2000/svg"
 width="512.000000pt" height="512.000000pt" viewBox="0 0 512.000000 512.000000"
 preserveAspectRatio="xMidYMid meet">

<g transform="translate(0.000000,512.000000) scale(0.100000,-0.100000)"
fill="#000000" stroke="none">
<path d="M1035 4943 c-366 -52 -693 -364 -772 -738 -19 -89 -12 -322 12 -410
25 -92 99 -236 150 -293 148 -164 350 -251 554 -239 161 10 283 54 406 147
l65 49 0 -1599 0 -1600 85 0 85 0 0 1105 0 1105 940 0 940 0 0 -1105 0 -1105
85 0 85 0 0 1600 0 1599 72 -54 c116 -88 242 -132 404 -142 167 -10 311 35
451 141 191 145 285 350 286 626 1 409 -272 765 -685 892 l-73 23 -1530 1
c-841 1 -1543 -1 -1560 -3z m3093 -179 c351 -72 587 -369 585 -734 -1 -199
-51 -331 -168 -445 -113 -111 -216 -155 -361 -155 -207 0 -390 104 -471 268
-37 73 -38 80 -38 182 0 98 2 111 30 165 22 43 40 63 69 78 144 75 290 -30
202 -146 -51 -67 -22 -147 55 -147 101 0 178 204 120 318 -59 115 -145 166
-281 166 -71 1 -94 -4 -142 -26 -71 -33 -137 -93 -171 -156 -52 -96 -57 -142
-57 -574 l0 -398 -940 0 -940 0 0 393 c0 438 -6 491 -62 585 -40 65 -93 113
-168 150 -75 37 -198 38 -278 3 -109 -49 -181 -169 -162 -270 28 -151 117
-225 185 -156 31 30 32 72 4 119 -42 71 -17 134 62 157 102 31 201 -31 234
-146 28 -95 17 -207 -29 -300 -116 -235 -459 -338 -696 -209 -88 48 -175 137
-219 224 -58 115 -75 204 -69 359 4 102 10 141 32 206 87 256 299 442 567 494
24 5 716 9 1537 10 1329 1 1501 -1 1570 -15z m-628 -1944 l0 -170 -940 0 -940
0 0 170 0 170 940 0 940 0 0 -170z"/>
<path d="M1967 2173 c-4 -3 -7 -435 -7 -960 l0 -953 85 0 85 0 0 960 0 960
-78 0 c-43 0 -82 -3 -85 -7z"/>
<path d="M2477 2174 c-4 -4 -7 -436 -7 -961 l0 -953 85 0 85 0 1 43 c0 23 1
454 1 957 l1 915 -80 3 c-43 1 -82 0 -86 -4z"/>
<path d="M2990 1220 l0 -960 85 0 85 0 -2 958 -3 957 -82 3 -83 3 0 -961z"/>
</g>
</svg>
