<?xml version="1.0" standalone="no"?>
<!DOCTYPE svg PUBLIC "-//W3C//DTD SVG 20010904//EN"
 "http://www.w3.org/TR/2001/REC-SVG-20010904/DTD/svg10.dtd">
<svg version="1.0" xmlns="http://www.w3.org/2000/svg"
 width="700.000000pt" height="700.000000pt" viewBox="0 0 700.000000 700.000000"
 preserveAspectRatio="xMidYMid meet">
<metadata>
Created by potrace 1.14, written by Peter Selinger 2001-2017
</metadata>
<g transform="translate(0.000000,700.000000) scale(0.100000,-0.100000)"
fill="#000000" stroke="none">
<path d="M1996 6763 c-1 -1 -133 -3 -292 -3 -243 -1 -304 -4 -375 -20 -428
-94 -810 -455 -943 -891 -31 -102 -43 -201 -40 -345 3 -128 9 -209 23 -282 23
-115 124 -325 208 -427 122 -151 366 -291 561 -322 60 -10 242 -10 307 -1 155
23 317 92 449 192 l86 65 1 -37 c0 -20 0 -998 0 -2172 0 -1174 2 -2142 5
-2150 3 -13 23 -15 111 -14 60 1 110 2 113 3 3 0 5 678 5 1506 0 999 3 1506
10 1508 9 3 2544 2 2555 -2 3 0 5 -676 5 -1502 0 -995 3 -1503 10 -1507 5 -4
58 -7 116 -7 l106 0 0 2177 c0 1198 2 2181 5 2184 3 3 44 -22 89 -56 133 -97
284 -162 439 -188 87 -14 320 -7 390 11 267 72 505 266 627 512 30 60 66 163
77 220 4 17 9 41 11 55 44 227 15 504 -76 717 -148 350 -424 598 -816 733
l-118 41 -1823 2 c-1003 1 -1825 1 -1826 0z m3487 -237 c152 -8 166 -10 252
-36 63 -20 225 -92 250 -112 5 -4 38 -29 72 -54 147 -107 273 -287 337 -480
17 -52 22 -73 31 -134 3 -20 8 -47 10 -60 8 -37 8 -239 1 -290 -35 -237 -136
-407 -326 -547 -143 -105 -324 -144 -519 -112 -243 40 -422 169 -526 379 -36
73 -39 93 -38 243 0 128 1 129 37 200 38 75 73 108 143 133 91 32 204 5 243
-58 29 -47 25 -90 -14 -161 -50 -92 -41 -157 26 -187 158 -71 304 235 206 431
-76 152 -206 220 -409 214 -131 -4 -227 -49 -327 -154 -47 -50 -108 -160 -117
-212 -3 -18 -8 -35 -10 -39 -12 -19 -18 -240 -19 -675 l-2 -490 -1284 0 -1284
0 -2 490 c-2 548 -6 641 -36 735 -49 155 -197 297 -352 337 -75 19 -220 13
-286 -13 -126 -49 -230 -182 -245 -313 -4 -39 22 -145 49 -198 33 -67 87 -113
130 -113 57 0 116 64 110 120 -1 14 -14 50 -28 80 -14 30 -26 69 -26 85 0 111
162 172 288 109 101 -50 163 -174 163 -324 0 -41 -3 -86 -6 -100 -3 -14 -8
-38 -10 -53 -8 -41 -59 -150 -91 -194 -89 -123 -258 -229 -432 -269 -49 -12
-236 -13 -282 -3 -25 6 -52 12 -60 14 -136 29 -317 173 -408 325 -48 80 -97
216 -108 300 -13 101 -7 335 13 420 11 49 55 166 84 224 105 206 291 381 498
467 180 75 126 71 931 76 399 2 728 5 732 6 21 5 2536 -2 2641 -7z m-698
-2671 l0 -230 -1275 -1 c-701 0 -1280 1 -1285 3 -7 2 -10 83 -9 231 1 125 2
228 3 229 0 1 578 1 1283 0 l1283 -2 0 -230z"/>
<path d="M2691 2961 c-4 -9 -9 -599 -10 -1311 l-2 -1295 110 0 c60 0 112 3
115 6 5 4 9 1918 6 2537 l0 83 -105 -2 c-86 -1 -107 -4 -114 -18z"/>
<path d="M3393 2971 c-6 -3 -11 -140 -13 -326 -5 -615 -5 -2277 0 -2284 6 -8
216 -8 224 -1 8 9 11 2599 2 2607 -9 10 -200 13 -213 4z"/>
<path d="M4090 2933 c-4 -449 -4 -2573 0 -2574 3 -1 56 -2 118 -3 l113 -1 -3
1307 c-2 720 -3 1308 -3 1309 0 0 -51 3 -112 6 l-113 5 0 -49z"/>
</g>
</svg>
